<?xml version="1.0" encoding="UTF-8" standalone="no"?>
<!-- Created with Inkscape (http://www.inkscape.org/) -->

<svg
   xmlns:dc="http://purl.org/dc/elements/1.1/"
   xmlns:cc="http://creativecommons.org/ns#"
   xmlns:rdf="http://www.w3.org/1999/02/22-rdf-syntax-ns#"
   xmlns:svg="http://www.w3.org/2000/svg"
   xmlns="http://www.w3.org/2000/svg"
   xmlns:sodipodi="http://sodipodi.sourceforge.net/DTD/sodipodi-0.dtd"
   xmlns:inkscape="http://www.inkscape.org/namespaces/inkscape"
   width="400mm"
   height="150mm"
   viewBox="0 0 400 150"
   version="1.1"
   id="svg48"
   inkscape:version="0.92.5 (2060ec1f9f, 2020-04-08)"
   sodipodi:docname="appleville.svg">
  <defs
     id="defs42" />
  <sodipodi:namedview
     id="base"
     pagecolor="#ffffff"
     bordercolor="#666666"
     borderopacity="1.0"
     inkscape:pageopacity="0.0"
     inkscape:pageshadow="2"
     inkscape:zoom="0.58852946"
     inkscape:cx="595.97076"
     inkscape:cy="660.90337"
     inkscape:document-units="mm"
     inkscape:current-layer="layer1"
     showgrid="false"
     inkscape:window-width="1848"
     inkscape:window-height="1016"
     inkscape:window-x="72"
     inkscape:window-y="27"
     inkscape:window-maximized="1"
     width="350mm" />
  <metadata
     id="metadata45">
    <rdf:RDF>
      <cc:Work
         rdf:about="">
        <dc:format>image/svg+xml</dc:format>
        <dc:type
           rdf:resource="http://purl.org/dc/dcmitype/StillImage" />
        <dc:title></dc:title>
      </cc:Work>
    </rdf:RDF>
  </metadata>
  <g
     inkscape:label="Layer 1"
     inkscape:groupmode="layer"
     id="layer1"
     transform="translate(0,-147)">
    <path
       style="fill:#dd0000;fill-opacity:1;stroke:#860000;stroke-width:2;stroke-linecap:butt;stroke-linejoin:miter;stroke-miterlimit:4;stroke-dasharray:none;stroke-opacity:1"
       d="m 77.113245,204.42093 c -8.315546,1.08463 -11.784253,-8.8592 -26.39282,-2.16928 -20.730011,9.4932 -6.869364,69.05519 7.230909,69.41674 14.100273,0.36154 17.715727,-10.12328 20.969637,-10.12328 3.253908,0 3.253908,7.954 10.123268,8.31555 6.86937,0.36155 19.523461,-10.48482 15.908011,-16.63109 -3.61546,-6.14627 -10.846371,-0.72309 -10.846371,-0.72309 l -1.80773,-5.06164 -5.78472,1.44618 -2.16928,-5.42318 -6.869359,-3.977 8.315549,-4.33855 -6.50782,-6.14627 8.31554,-1.80773 -3.61545,-6.50781 7.954,2.53081 3.977,-7.23091 6.146271,6.14628 c 0,0 9.03864,0 6.14628,-6.50782 -2.89237,-6.50782 -9.400191,-19.16191 -17.354191,-15.908 -7.954,3.25391 -13.738724,4.70009 -13.738724,4.70009 z"
       id="path50"
       inkscape:connector-curvature="0"
       sodipodi:nodetypes="cssssccccccccccccccsc" />
    <path
       style="fill:#4bde00;fill-opacity:1;stroke:#009a00;stroke-width:3;stroke-linecap:butt;stroke-linejoin:miter;stroke-miterlimit:4;stroke-dasharray:none;stroke-opacity:1"
       d="m 77.113245,204.42093 c 0,0 -36.997838,-12.09838 -32.900638,-44.4701 16.269546,1.44618 43.747002,28.92364 32.900638,44.4701 z"
       id="path52"
       inkscape:connector-curvature="0"
       sodipodi:nodetypes="ccc" />
    <text
       xml:space="preserve"
       style="font-style:normal;font-weight:normal;font-size:10.58333302px;line-height:1.25;font-family:sans-serif;letter-spacing:0px;word-spacing:0px;fill:#ffffff;fill-opacity:1;stroke:#052605;stroke-width:2;stroke-miterlimit:4;stroke-dasharray:none;stroke-opacity:1"
       x="111.90962"
       y="252.97783"
       id="text56"><tspan
         sodipodi:role="line"
         id="tspan54"
         x="111.90962"
         y="252.97783"
         style="font-style:normal;font-variant:normal;font-weight:normal;font-stretch:normal;font-size:50.79999924px;line-height:11.25;font-family:'Comic Sans MS';-inkscape-font-specification:'Comic Sans MS';fill:#ffffff;fill-opacity:1;stroke:#052605;stroke-width:2;stroke-miterlimit:4;stroke-dasharray:none;stroke-opacity:1"
         dy="20 -20 20 -20 20 -20 20 -20 20">PPLEVILLE</tspan></text>
  </g>
</svg>
